<?xml version="1.0" encoding="iso-8859-1"?>
<!-- Generator: Adobe Illustrator 19.0.0, SVG Export Plug-In . SVG Version: 6.00 Build 0)  -->
<svg xmlns="http://www.w3.org/2000/svg" xmlns:xlink="http://www.w3.org/1999/xlink" version="1.1" id="Layer_1" x="0px" y="0px" viewBox="0 0 512.002 512.002" style="enable-background:new 0 0 512.002 512.002;" xml:space="preserve" width="512px" height="512px">
<g>
	<g>
		<path d="M504.499,321.509l-67.405-67.405c3.354-38.835-2.85-68.395-20.07-88.73c-17.05-20.122-42.385-29.901-77.457-29.901    c-18.449,0-36.958,2.628-53.299,4.949c-4.13,0.589-7.936,1.084-11.776,1.579c5.811-24.132,17.562-54.699,41.754-78.882    c5.001-5,5.001-13.099,0-18.099s-13.099-5.001-18.099,0c-30.831,30.831-44.288,69.589-50.21,98.057    c-6.562-0.563-13.961-1.476-22.204-2.645c-16.333-2.321-34.842-4.949-53.291-4.949c-35.081,0-60.416,9.779-77.466,29.909    c-17.22,20.326-23.424,49.894-20.07,88.721L7.501,321.518c-10.001,10.001-10.001,26.206,0,36.207l54.306,54.306    c10.001,10.001,26.206,10.001,36.207,0l11.349-11.349c16.751,46.473,46.379,70.05,88.354,70.05c13.329,0,25.992-2.261,37.163-4.25    c8.098-1.442,15.744-2.807,21.128-2.807c5.717,0,13.56,1.391,21.871,2.859c11.127,1.971,23.74,4.198,36.915,4.198    c41.685,0,71.151-23.569,87.868-70.042l11.341,11.341c10.001,10.001,26.206,10.001,36.207,0l54.306-54.306    C514.5,347.715,514.5,331.502,504.499,321.509z M172.442,161.074c30.31,0,63.078,8.192,83.558,8.192    c20.48,0,53.248-8.192,83.558-8.192c33.886,0,64.666,10.283,71.808,53.649H100.642    C107.785,171.357,138.564,161.074,172.442,161.074z M79.906,393.915L25.6,339.609l18.099-18.099l9.054,9.054    c5.001,5.001,13.099,5.001,18.099,0c5-5,5-13.099,0-18.099l-9.054-9.054l17.263-17.263c5.709,31.147,11.716,51.712,17.101,69.53    c1.749,5.786,3.294,11.426,4.873,17.118L79.906,393.915z M383.991,374.058c-14.618,58.522-41.523,71.057-69.205,71.057    c-20.762,0-41.975-7.057-58.786-7.057c-16.307,0-37.444,7.057-58.291,7.057c-27.802,0-55.074-12.535-69.709-71.057    c-2.671-10.701-5.743-20.489-9.003-31.343h273.86C389.581,353.868,386.509,363.997,383.991,374.058z M399.974,317.123H111.863    c-3.183-12.493-6.391-27.017-9.463-45.457c-1.929-11.58-2.978-21.982-3.268-31.343H140.8v12.791c0,7.074,5.726,12.8,12.8,12.8    c7.074,0,12.8-5.726,12.8-12.8v-12.8h76.8v25.6c0,7.074,5.726,12.8,12.8,12.8c7.074,0,12.8-5.726,12.8-12.8v-25.6h76.8v12.8    c0,7.074,5.726,12.8,12.8,12.8s12.8-5.726,12.8-12.8v-12.8h41.668c-0.29,9.361-1.34,19.772-3.268,31.351    C406.673,289.228,403.345,304.025,399.974,317.123z M432.094,393.915l-21.154-21.154c1.553-5.692,3.081-11.307,4.873-17.374    c5.291-17.946,11.682-40.226,17.092-69.265l17.289,17.289l-9.054,9.054c-5.001,5-5.001,13.099,0,18.099c5,5,13.099,5,18.099,0    l9.054-9.054l18.108,18.099L432.094,393.915z" fill="#FFFFFF"/>
	</g>
</g>
<g>
</g>
<g>
</g>
<g>
</g>
<g>
</g>
<g>
</g>
<g>
</g>
<g>
</g>
<g>
</g>
<g>
</g>
<g>
</g>
<g>
</g>
<g>
</g>
<g>
</g>
<g>
</g>
<g>
</g>
</svg>
