<?xml version="1.0" encoding="iso-8859-1"?>
<!-- Generator: Adobe Illustrator 19.0.0, SVG Export Plug-In . SVG Version: 6.00 Build 0)  -->
<svg xmlns="http://www.w3.org/2000/svg" xmlns:xlink="http://www.w3.org/1999/xlink" version="1.1" id="Capa_1" x="0px" y="0px" viewBox="0 0 512 512" style="enable-background:new 0 0 512 512;" xml:space="preserve" width="512px" height="512px">
<g>
	<g>
		<path d="M507.674,123.085L388.914,4.326c-5.767-5.767-15.119-5.767-20.887,0l-37.803,37.803l-19.247-19.247    c-2.77-2.77-6.526-4.326-10.443-4.326s-7.674,1.556-10.443,4.326l-59.38,59.381c-5.768,5.767-5.768,15.119,0,20.887l48.936,48.936    L152.085,279.648l-48.936-48.936c-5.766-5.769-15.118-5.767-20.887,0l-59.38,59.379c-2.77,2.77-4.326,6.526-4.326,10.443    s1.556,7.674,4.326,10.443l19.247,19.247L4.326,368.027c-5.768,5.767-5.768,15.119,0,20.887l118.759,118.759    c2.884,2.884,6.664,4.326,10.443,4.326c3.779,0,7.56-1.443,10.443-4.326l37.803-37.803l19.247,19.247    c2.77,2.77,6.526,4.326,10.443,4.326s7.674-1.556,10.443-4.326l59.38-59.381c5.768-5.767,5.768-15.119,0-20.887l-48.936-48.936    L359.914,232.35l48.936,48.936c2.884,2.885,6.664,4.326,10.443,4.326c3.779,0,7.56-1.442,10.443-4.326l59.381-59.38    c2.77-2.77,4.326-6.526,4.326-10.443s-1.556-7.674-4.326-10.443l-19.247-19.247l37.803-37.803    C513.442,138.204,513.442,128.852,507.674,123.085z M133.528,476.343l-97.873-97.873l27.359-27.359l97.874,97.873L133.528,476.343    z M249.959,419.293l-38.494,38.495L54.211,300.534l38.495-38.494L249.959,419.293z M211.465,339.027l-38.494-38.494    l127.563-127.563l38.494,38.494L211.465,339.027z M419.294,249.958L262.041,92.705l38.494-38.495l157.254,157.255L419.294,249.958    z M448.984,160.887l-97.873-97.873l27.359-27.359l97.873,97.873L448.984,160.887z" fill="#FFFFFF"/>
	</g>
</g>
<g>
</g>
<g>
</g>
<g>
</g>
<g>
</g>
<g>
</g>
<g>
</g>
<g>
</g>
<g>
</g>
<g>
</g>
<g>
</g>
<g>
</g>
<g>
</g>
<g>
</g>
<g>
</g>
<g>
</g>
</svg>
