<?xml version="1.0" encoding="iso-8859-1"?>
<!-- Generator: Adobe Illustrator 19.0.0, SVG Export Plug-In . SVG Version: 6.00 Build 0)  -->
<svg xmlns="http://www.w3.org/2000/svg" xmlns:xlink="http://www.w3.org/1999/xlink" version="1.1" id="Layer_1" x="0px" y="0px" viewBox="0 0 512 512" style="enable-background:new 0 0 512 512;" xml:space="preserve" width="512px" height="512px">
<g>
	<g>
		<path d="M342.477,180.565c-22.554-22.468-60.476-25.591-86.477-6.596c-26.001-19.004-63.923-15.846-86.451,6.579    c-12.646,12.578-19.627,29.286-19.627,47.078c0,17.792,6.972,34.509,19.627,47.087L256,360.738l86.451-86.025    c12.646-12.578,19.627-29.303,19.627-47.087S355.106,193.126,342.477,180.565z M324.173,256.384L256,324.198l-68.173-67.814    c-7.697-7.663-11.921-17.877-11.921-28.749c-0.026-10.871,4.224-21.086,11.921-28.766c7.748-7.689,18.022-11.921,28.979-11.921    c9.847,0,19.098,3.516,26.547,9.975L256,208.708l12.425-11.597c16.196-14.037,41.071-12.834,55.723,1.766    c7.723,7.672,11.972,17.886,11.947,28.766C336.102,238.507,331.878,248.721,324.173,256.384z" fill="#ff5136"/>
	</g>
</g>
<g>
	<g>
		<path d="M358.4,90.897V25.6c0-14.14-11.46-25.6-25.6-25.6H179.2c-14.14,0-25.6,11.46-25.6,25.6v65.297    c-36.241,6.135-64,37.538-64,75.503v179.2c0,37.965,27.759,69.367,64,75.503V486.4c0,14.14,11.46,25.6,25.6,25.6h153.6    c14.14,0,25.6-11.46,25.6-25.6v-65.297c36.241-6.135,64-37.538,64-75.503V166.4C422.4,128.435,394.641,97.033,358.4,90.897z     M179.2,25.6h153.6v64H179.2V25.6z M332.8,486.4H179.2v-64h153.6V486.4z M396.8,345.6c0,28.279-22.921,51.2-51.2,51.2H166.4    c-28.279,0-51.2-22.921-51.2-51.2V166.4c0-28.279,22.921-51.2,51.2-51.2h179.2c28.279,0,51.2,22.921,51.2,51.2V345.6z" fill="#ff5136"/>
	</g>
</g>
<g>
</g>
<g>
</g>
<g>
</g>
<g>
</g>
<g>
</g>
<g>
</g>
<g>
</g>
<g>
</g>
<g>
</g>
<g>
</g>
<g>
</g>
<g>
</g>
<g>
</g>
<g>
</g>
<g>
</g>
</svg>
