<?xml version="1.0" encoding="iso-8859-1"?>
<!-- Generator: Adobe Illustrator 19.0.0, SVG Export Plug-In . SVG Version: 6.00 Build 0)  -->
<svg xmlns="http://www.w3.org/2000/svg" xmlns:xlink="http://www.w3.org/1999/xlink" version="1.1" id="Layer_1" x="0px" y="0px" viewBox="0 0 512 512" style="enable-background:new 0 0 512 512;" xml:space="preserve" width="512px" height="512px">
<g>
	<g>
		<path d="M256,0C114.842,0,0,114.842,0,256s114.842,256,256,256s256-114.842,256-256S397.158,0,256,0z M243.2,485.752    c-65.843-3.627-124.339-34.645-164.036-82.15c39.671-47.778,98.005-79.155,164.036-82.816V485.752z M243.2,295.177    c-71.62,3.601-135.305,36.651-179.593,87.433c-21.751-32.99-35.055-71.91-37.359-113.809H243.2V295.177z M243.2,243.2H26.249    c2.313-41.899,15.607-80.819,37.359-113.809c44.288,50.782,107.972,83.831,179.593,87.433V243.2z M243.2,191.206    c-66.031-3.661-124.425-34.961-164.105-82.731c39.697-47.548,98.227-78.601,164.105-82.227V191.206z M268.8,26.249    c65.852,3.627,124.365,34.654,164.062,82.176c-39.671,47.778-98.039,79.121-164.062,82.782V26.249z M268.8,216.815    c71.612-3.593,135.347-36.591,179.635-87.364c21.726,32.973,35.012,71.876,37.325,113.749H268.8V216.815z M268.8,485.751V320.777    c66.022,3.669,124.331,35.081,164.002,82.859C393.105,451.123,334.626,482.125,268.8,485.751z M448.358,382.66    c-44.288-50.782-107.93-83.9-179.558-87.492V268.8h216.951C483.439,310.716,470.135,349.662,448.358,382.66z" fill="#FFFFFF"/>
	</g>
</g>
<g>
</g>
<g>
</g>
<g>
</g>
<g>
</g>
<g>
</g>
<g>
</g>
<g>
</g>
<g>
</g>
<g>
</g>
<g>
</g>
<g>
</g>
<g>
</g>
<g>
</g>
<g>
</g>
<g>
</g>
</svg>
