<?xml version="1.0" encoding="iso-8859-1"?>
<!-- Generator: Adobe Illustrator 19.0.0, SVG Export Plug-In . SVG Version: 6.00 Build 0)  -->
<svg xmlns="http://www.w3.org/2000/svg" xmlns:xlink="http://www.w3.org/1999/xlink" version="1.1" id="Layer_1" x="0px" y="0px" viewBox="0 0 512 512" style="enable-background:new 0 0 512 512;" xml:space="preserve" width="512px" height="512px">
<g>
	<g>
		<path d="M448,12.8C448,5.726,442.274,0,435.2,0c-7.074,0-12.8,5.726-12.8,12.8c0,74.01-57.498,76.74-64,76.8    c-5.001,0-9.54,2.91-11.622,7.45l-80.964,175.923c-9.907-1.792-20.105-3.046-30.839-3.046c-14.566,0-29.321,1.766-43.853,5.257    c-3.388,0.811-6.656,1.835-9.95,2.816L146.884,192H179.2c7.074,0,12.8-5.726,12.8-12.8s-5.726-12.8-12.8-12.8h-50.944    c-0.009,0-0.017,0-0.034,0H76.8c-7.074,0-12.8,5.726-12.8,12.8S69.726,192,76.8,192h42.53l37.879,94.985    c-60.587,27.657-97.033,84.471-84.036,138.633c5.99,24.96,21.513,45.824,43.247,60.783H89.6c-7.074,0-12.8,5.726-12.8,12.8    c0,7.074,5.726,12.8,12.8,12.8h256c7.074,0,12.8-5.726,12.8-12.8c0-7.074-5.726-12.8-12.8-12.8h-49.673    c16.819-9.677,31.676-21.692,43.401-35.857c23.97-28.937,32.913-62.626,25.182-94.848c-8.482-35.362-36.105-62.379-73.626-75.972    l76.066-165.291C389.35,111.266,448,95.113,448,12.8z M339.618,361.677c12.006,50.022-32.333,103.56-99.038,119.569    c-12.851,3.081-25.591,4.548-37.879,4.548c-51.482,0-94.942-25.762-104.636-66.142c-12.006-50.022,32.333-103.561,99.038-119.569    c12.851-3.081,25.591-4.548,37.879-4.548C286.464,295.526,329.924,321.289,339.618,361.677z" fill="#c4cbd7"/>
	</g>
</g>
<g>
	<g>
		<path d="M251.196,422.409h-12.134l-22.75-56.883c-2.628-6.579-10.138-9.779-16.64-7.134c-6.562,2.628-9.762,10.078-7.134,16.64    l18.953,47.377h-11.494c-7.074,0-12.8,5.726-12.8,12.8c0,7.074,5.726,12.8,12.8,12.8h51.2c7.074,0,12.8-5.726,12.8-12.8    C263.996,428.134,258.27,422.409,251.196,422.409z" fill="#c4cbd7"/>
	</g>
</g>
<g>
</g>
<g>
</g>
<g>
</g>
<g>
</g>
<g>
</g>
<g>
</g>
<g>
</g>
<g>
</g>
<g>
</g>
<g>
</g>
<g>
</g>
<g>
</g>
<g>
</g>
<g>
</g>
<g>
</g>
</svg>
