<svg xmlns="http://www.w3.org/2000/svg" width="55" height="56" viewBox="0 0 55 56">
  <title>Credit card icon</title>
  <g fill="none" fill-rule="evenodd" transform="translate(.07 -.06)">
    <polygon fill="#FFB81C" points="31.9 34.15 1.857 16.205 3.806 12.892 28.282 27.511"/>
    <path fill="#FFB81C" d="M2.54323437,16.0282392 L30.5777656,32.7728165 L27.9085469,27.8754144 L3.98125521,13.5844454 L2.54323437,16.0282392 Z M33.2229219,35.5272082 L1.16995312,16.3821361 L3.63005729,12.1994557 L28.6556302,27.1468371 L33.2229219,35.5272082 Z"/>
    <g fill="#0E497B" transform="translate(0 .168)">
      <path d="M40.8550885,55.4226804 C40.7405052,55.4226804 40.624776,55.3949691 40.5164948,55.3366598 C39.1202969,54.5803711 37.9114427,53.5619794 36.9248802,52.3103505 C35.4696719,50.3878763 34.9093594,48.4890722 34.5123281,46.2254021 C34.3736823,45.1458144 34.348474,44.0829691 34.4315469,43.0334021 C34.5077448,41.3372371 34.4699323,40.4695258 34.0339427,39.5492784 C33.784724,39.032 32.9958177,37.5800412 31.9032656,35.5703918 L30.793526,33.5237938 C30.2429531,32.5094433 29.6769115,31.4650722 29.1343594,30.449567 C27.0575365,26.598268 26.0474844,24.6509691 25.7587344,23.940866 C25.0030573,22.1049897 25.3296198,20.7407835 25.7375365,19.9198351 C26.3219115,18.8379381 27.2557656,18.0227629 28.3781094,17.6018969 C29.5067552,17.1302268 31.790974,16.7665155 34.134776,19.7339381 L44.2077969,32.4644124 C44.454151,32.7761649 44.4031615,33.2305155 44.0937865,33.4787629 C43.7832656,33.7270103 43.334099,33.6756289 43.0871719,33.3644536 L33.014151,20.6328247 C31.6729531,18.9343505 30.2882135,18.3656907 28.9011823,18.9453196 C28.078474,19.2541856 27.4144635,19.8338144 27.0065469,20.5877938 C26.744151,21.1171959 26.5333177,22.0553402 27.0827448,23.3906804 C27.3451406,24.0355464 28.3970156,26.0596289 30.3942031,29.763134 C30.9367552,30.7780619 31.5010781,31.8195464 32.0499323,32.8321649 L33.1596719,34.8770309 C34.2613906,36.9045773 35.0571719,38.3698144 35.324151,38.9228866 C35.9406094,40.222433 35.9354531,41.483299 35.860401,43.1240412 C35.7836302,44.0985567 35.8065469,45.0609485 35.9274323,46.0077526 C36.2832135,48.0306804 36.7839427,49.7441649 38.0546719,51.4241649 C38.9111823,52.5101031 39.9705052,53.4026392 41.1948281,54.0654021 C41.5431615,54.2541856 41.6737865,54.6912165 41.4864427,55.0428041 C41.3569635,55.2852784 41.1100365,55.4226804 40.8550885,55.4226804"/>
      <path d="M28.4274375,37.3532701 C27.7216042,37.3532701 27.0341042,37.1627546 26.4325417,36.8019299 L1.91801042,22.1593732 C0.0680625,21.0503423 -0.551260417,18.6267546 0.536135417,16.7568165 L9.00785417,2.34287835 C10.1130104,0.472362887 12.5244167,-0.14825567 14.3835312,0.955579381 L38.9009271,15.599868 C40.7462917,16.7100536 41.3633229,19.1319093 40.2782188,20.9983835 L37.8501979,25.1366103 C37.6496771,25.4801155 37.2096771,25.5944247 36.8693646,25.3906309 C36.5290521,25.1879918 36.4161875,24.7451876 36.6172813,24.4022598 L39.0435833,20.2663423 C39.7310833,19.0834144 39.3392083,17.5448577 38.1681667,16.8405278 L13.6547813,2.19797113 C12.4734271,1.49768247 10.9414479,1.89083711 10.2390521,3.08011546 L1.77077083,17.4894351 C1.08097917,18.6746722 1.47457292,20.2143835 2.64905208,20.9181361 L27.1635833,35.5612701 C27.5451458,35.7893113 27.9794167,35.9099711 28.4217083,35.9099711 L28.4268646,35.9099711 C28.63025,35.9076619 28.8387917,35.8787959 29.0416042,35.8245278 C29.6861354,35.6599918 30.2412917,35.2414351 30.5735833,34.6727753 L31.2146771,33.5914557 C31.4180625,33.2496825 31.8580625,33.1376825 32.1972292,33.3426309 C32.5363958,33.5470021 32.6475417,33.9903835 32.4447292,34.332734 L31.8053542,35.4105897 C31.2811354,36.3048577 30.4051458,36.9658887 29.4025417,37.2210639 C29.0937396,37.3041979 28.7648854,37.3498062 28.4354583,37.3532701 L28.4274375,37.3532701 Z"/>
      <path d="M54.0413958 53.6772124C53.7016562 53.6772124 53.4003021 53.4330062 53.3372812 53.0848825 52.8101979 50.1567175 49.5365521 32.4849649 48.8931667 29.1463258L48.8261354 28.7681814C48.4795208 26.7879753 48.2881667 25.6974186 45.7461354 24.739068L38.8453542 22.2941196C38.4723854 22.1619134 38.275875 21.7497072 38.4070729 21.3738722 38.5376979 20.9980371 38.9467604 20.8005938 39.3197292 20.9316454L46.2342604 23.3817897C49.5560312 24.6339959 49.8717083 26.4340784 50.2366562 28.5176247L50.3008229 28.8801814C50.9430625 32.2118928 54.219 49.8969237 54.7466562 52.8262433 54.817125 53.2188206 54.5593125 53.5940784 54.1703021 53.6650887 54.1267604 53.6731711 54.0837917 53.6772124 54.0413958 53.6772124M35.1597812 42.8541443C35.0853021 42.8541443 35.0096771 42.8420206 34.934625 42.8177732L31.7085312 41.7399175C31.3825417 41.6308041 31.0651458 41.4847423 30.7660833 41.3057732 30.135875 40.9299381 29.6110833 40.4288247 29.20775 39.8174433L27.3451979 36.9776082C27.1269167 36.6450722 27.2180104 36.1976495 27.5474375 35.9776907 27.8774375 35.7588866 28.3214479 35.8489485 28.5403021 36.1814845L30.4017083 39.0195876C30.6841562 39.4473814 31.0525417 39.7995464 31.4965521 40.0645361 31.7079583 40.1909691 31.9308229 40.2931546 32.1605625 40.3699381L35.3849375 41.4472165C35.7601979 41.5724948 35.9635833 41.9806598 35.8398333 42.3593814 35.7401458 42.6624742 35.4599896 42.8541443 35.1597812 42.8541443"/>
    </g>
  </g>
</svg>
