<svg xmlns="http://www.w3.org/2000/svg" xmlns:xlink="http://www.w3.org/1999/xlink" width="54" height="55" viewBox="0 0 54 55">
  <title>Growth Chart</title>
  <desc>Growth bar chart icon</desc>
  <defs>
    <polygon id="growth-a" points=".205 .204 11.952 .204 11.952 24.948 .205 24.948"/>
    <polygon id="growth-c" points=".478 .2 12.225 .2 12.225 43.093 .478 43.093"/>
    <polygon id="growth-e" points=".025 .095 19.557 .095 19.557 19.814 .025 19.814"/>
  </defs>
  <g fill="none" fill-rule="evenodd" transform="translate(.709 -.56)">
    <path fill="#0E497B" d="M1.83932553,39.4160619 C1.60251702,39.4160619 1.40968723,39.6099794 1.40968723,39.8481237 L1.40968723,53.0560619 C1.40968723,53.2942062 1.60251702,53.4875567 1.83932553,53.4875567 L9.90716596,53.4875567 C10.1439745,53.4875567 10.3368043,53.2942062 10.3368043,53.0560619 L10.3368043,39.8481237 C10.3368043,39.6099794 10.1439745,39.4160619 9.90716596,39.4160619 L1.83932553,39.4160619 Z M9.90716596,54.9050825 L1.83932553,54.9050825 C0.824995745,54.9050825 0.000112765957,54.0755464 0.000112765957,53.0560619 L0.000112765957,39.8481237 C0.000112765957,38.8280722 0.824995745,37.9985361 1.83932553,37.9985361 L9.90716596,37.9985361 C10.9214957,37.9985361 11.7463787,38.8280722 11.7463787,39.8481237 L11.7463787,53.0560619 C11.7463787,54.0755464 10.9214957,54.9050825 9.90716596,54.9050825 Z"/>
    <g transform="translate(20.298 29.957)">
      <path fill="#0E497B" d="M2.0507617,1.62187629 C1.81000638,1.62187629 1.61435745,1.81862887 1.61435745,2.06017526 L1.61435745,23.0922887 C1.61435745,23.3344021 1.81000638,23.5311546 2.0507617,23.5311546 L10.105634,23.5311546 C10.3458255,23.5311546 10.5420383,23.3344021 10.5420383,23.0922887 L10.5420383,2.06017526 C10.5420383,1.81862887 10.3458255,1.62187629 10.105634,1.62187629 L2.0507617,1.62187629 Z M10.105634,24.9486804 L2.0507617,24.9486804 C1.03304894,24.9486804 0.204782979,24.1157423 0.204782979,23.0922887 L0.204782979,2.06017526 C0.204782979,1.03728866 1.03304894,0.204350515 2.0507617,0.204350515 L10.105634,0.204350515 C11.1233468,0.204350515 11.9516128,1.03728866 11.9516128,2.06017526 L11.9516128,23.0922887 C11.9516128,24.1157423 11.1233468,24.9486804 10.105634,24.9486804 Z" mask="url(#growth-b)"/>
    </g>
    <g transform="translate(40.596 11.813)">
      <path fill="#0E497B" d="M2.31119468,1.61739691 C2.07776915,1.61739691 1.88775851,1.80847938 1.88775851,2.04322165 L1.88775851,41.2491495 C1.88775851,41.4844588 2.07776915,41.6749742 2.31119468,41.6749742 L10.3920032,41.6749742 C10.6254287,41.6749742 10.8154394,41.4844588 10.8154394,41.2491495 L10.8154394,2.04322165 C10.8154394,1.80847938 10.6254287,1.61739691 10.3920032,1.61739691 L2.31119468,1.61739691 Z M10.3920032,43.0925 L2.31119468,43.0925 C1.3008117,43.0925 0.478184043,42.265799 0.478184043,41.2491495 L0.478184043,2.04322165 C0.478184043,1.02657216 1.3008117,0.199871134 2.31119468,0.199871134 L10.3920032,0.199871134 C11.4023862,0.199871134 12.2250138,1.02657216 12.2250138,2.04322165 L12.2250138,41.2491495 C12.2250138,42.265799 11.4023862,43.0925 10.3920032,43.0925 Z" mask="url(#growth-d)"/>
    </g>
    <path fill="#FFB81C" d="M32.8067181,10.2538144 C32.3393032,10.2538144 31.9609734,9.87278351 31.9609734,9.40329897 L31.9609734,2.26804124 L24.714633,2.26804124 C24.2472181,2.26804124 23.8688883,1.88701031 23.8688883,1.41752577 C23.8688883,0.948041237 24.2472181,0.567010309 24.714633,0.567010309 L32.8067181,0.567010309 C33.274133,0.567010309 33.6524628,0.948041237 33.6524628,1.41752577 L33.6524628,9.40329897 C33.6524628,9.87278351 33.274133,10.2538144 32.8067181,10.2538144"/>
    <g transform="translate(14.096 .472)">
      <path fill="#FFB81C" d="M0.870778723,19.8143454 C0.654831915,19.8143454 0.438885106,19.7315619 0.273682979,19.5665619 C-0.0572851064,19.2354278 -0.0578489362,18.696201 0.27142766,18.363366 L18.111566,0.344912371 C18.4414064,0.0126443299 18.9764809,0.0103762887 19.3080128,0.34264433 C19.6389809,0.673778351 19.6401085,1.21243814 19.3102681,1.5452732 L1.47012979,19.5642938 C1.30492766,19.7309948 1.08785319,19.8143454 0.870778723,19.8143454" mask="url(#growth-f)"/>
    </g>
  </g>
</svg>
