<svg xmlns="http://www.w3.org/2000/svg" xmlns:xlink="http://www.w3.org/1999/xlink" width="39" height="52" viewBox="0 0 39 52">
  <title>Map pinpoint icon</title>
  <defs>
    <polygon id="location-a" points="0 .224 37.925 .224 37.925 51.464 0 51.464"/>
  </defs>
  <g fill="none" fill-rule="evenodd" transform="translate(.799 -.341)">
    <g transform="translate(0 .312)">
      <path fill="#0E497B" d="M18.96238,1.56428866 C9.25500857,1.56428866 1.35698,9.36375258 1.35698,18.9505155 C1.35698,31.5961649 16.11238,46.9919175 18.96238,49.8465567 C21.81238,46.9908454 36.56778,31.590268 36.56778,18.9505155 C36.56778,9.36375258 28.6697514,1.56428866 18.96238,1.56428866 M18.96238,51.4639175 C18.7924657,51.4639175 18.6220086,51.4011959 18.4906371,51.2752165 C18.4444943,51.2312577 13.8253229,46.7967835 9.27292286,40.657567 C3.11963714,32.3595464 -0.000162857143,25.0559588 -0.000162857143,18.9505155 C-0.000162857143,8.62449485 8.50640857,0.224082474 18.96238,0.224082474 C29.4183514,0.224082474 37.9249229,8.62449485 37.9249229,18.9505155 C37.9249229,25.0559588 34.8051229,32.3595464 28.6518371,40.657567 C24.0994371,46.7967835 19.4802657,51.2312577 19.4341229,51.2752165 C19.3027514,51.4011959 19.1322943,51.4639175 18.96238,51.4639175"/>
    </g>
    <path fill="#FFB81C" d="M18.96238,10.3554515 C14.1385514,10.3554515 10.2136943,14.2307918 10.2136943,18.9949567 C10.2136943,23.7585856 14.1385514,27.6339258 18.96238,27.6339258 C23.7862086,27.6339258 27.7110657,23.7585856 27.7110657,18.9949567 C27.7110657,14.2307918 23.7862086,10.3554515 18.96238,10.3554515 M18.96238,28.974132 C13.3899514,28.974132 8.85655143,24.4973072 8.85655143,18.9949567 C8.85655143,13.4920701 13.3899514,9.01524536 18.96238,9.01524536 C24.5348086,9.01524536 29.0682086,13.4920701 29.0682086,18.9949567 C29.0682086,24.4973072 24.5348086,28.974132 18.96238,28.974132"/>
  </g>
</svg>
