<svg xmlns="http://www.w3.org/2000/svg" width="51" height="51" viewBox="0 0 51 51">
  <title>Map icon</title>
  <g fill="none" fill-rule="evenodd" transform="translate(.2 .628)">
    <path fill="#FFB81C" d="M11.3777812,17.2163684 C11.1344688,17.2163684 10.9007188,17.0837368 10.7838438,16.8542632 C10.6191563,16.529 10.7509063,16.1337368 11.0792188,15.9705789 C11.6365,15.6926842 12.2410625,15.5379474 12.875375,15.509 C13.2360938,15.4979474 13.5527188,15.7737368 13.5691875,16.1363684 C13.5856562,16.4995263 13.3019688,16.8074211 12.9359375,16.8237368 C12.4891563,16.8437368 12.0652188,16.9521579 11.6758125,17.1463684 C11.5796563,17.1937368 11.4776563,17.2163684 11.3777812,17.2163684 M37.2045,17.7226842 C37.1210938,17.7226842 37.0360938,17.7074211 36.9542813,17.6742632 C36.513875,17.4963684 36.06975,17.3984737 35.6346563,17.3826842 C35.2680938,17.3700526 34.98175,17.0647895 34.9950313,16.7016316 C35.0077813,16.3384737 35.3175,16.0474211 35.6824688,16.0679474 C36.27375,16.089 36.8698125,16.2195263 37.45525,16.4553158 C37.7947188,16.5921579 37.9578125,16.9763684 37.8196875,17.3132105 C37.7145,17.5679474 37.4664063,17.7226842 37.2045,17.7226842 M17.0664063,18.3411053 C16.9330625,18.3411053 16.798125,18.3016316 16.68125,18.2184737 C16.2504063,17.9142632 15.8216875,17.6542632 15.4089063,17.4468947 C15.0816563,17.2832105 14.9509688,16.8868947 15.1161875,16.5632105 C15.2824688,16.2384737 15.6830313,16.109 16.0086875,16.2732105 C16.4809688,16.5105789 16.9670625,16.8047895 17.452625,17.1474211 C17.7511875,17.3584737 17.8207813,17.7695263 17.60775,18.0647895 C17.4775938,18.2447895 17.274125,18.3411053 17.0664063,18.3411053 M31.705,19.2432105 C31.5387188,19.2432105 31.3729688,19.1816316 31.2444063,19.059 C30.9798438,18.8063684 30.9724063,18.3900526 31.2263438,18.1284737 C31.6513438,17.6916316 32.0949375,17.3184737 32.544375,17.0184737 C32.8477188,16.8168947 33.2605,16.8953158 33.4660938,17.1968947 C33.6711563,17.4979474 33.5904063,17.9068947 33.286,18.1100526 C32.914125,18.3584737 32.5427813,18.6721579 32.183125,19.0416316 C32.0524375,19.1758421 31.8787188,19.2432105 31.705,19.2432105 M40.5720938,20.6153158 C40.36225,20.6153158 40.1555938,20.5168947 40.0270313,20.3332105 C39.7337813,19.9163684 39.4171563,19.5305789 39.0861875,19.1863684 C38.8333125,18.9237368 38.842875,18.5074211 39.1085,18.2568947 C39.3730625,18.0053158 39.7943438,18.0153158 40.0472188,18.279 C40.4254688,18.6711053 40.7845938,19.1095263 41.116625,19.5816316 C41.3259375,19.8800526 41.2520938,20.2900526 40.950875,20.4968947 C40.8355938,20.5774211 40.7033125,20.6153158 40.5720938,20.6153158 M8.64025,20.6453158 C8.55790625,20.6453158 8.4755625,20.6300526 8.39534375,20.599 C8.05428125,20.4647895 7.88746875,20.0821579 8.0229375,19.7447895 C8.245,19.1905789 8.49521875,18.6816316 8.76721875,18.2321579 C8.95528125,17.9205789 9.3638125,17.8200526 9.6783125,18.0058421 C9.9928125,18.1921579 10.0948125,18.5968947 9.90621875,18.9084737 C9.67140625,19.2974211 9.4530625,19.7421579 9.2575625,20.2300526 C9.1534375,20.4879474 8.90428125,20.6453158 8.64025,20.6453158 M20.3628125,21.3847895 C20.1779375,21.3847895 19.9946563,21.3084737 19.8629063,21.1605789 C19.5090938,20.7600526 19.1531563,20.3816316 18.8051875,20.0342632 C18.547,19.7763684 18.5485938,19.3600526 18.808375,19.1042632 C19.0692188,18.8484737 19.4894375,18.8495263 19.747625,19.1074211 C20.1147188,19.4737368 20.48925,19.8726842 20.8621875,20.2932105 C21.1039063,20.5663684 21.07575,20.9821579 20.8000313,21.2216316 C20.674125,21.3305789 20.5179375,21.3847895 20.3628125,21.3847895 M29.1959063,22.9411053 C29.0960313,22.9411053 28.9945625,22.919 28.8989375,22.8711053 C28.5711563,22.709 28.4383438,22.3137368 28.6030313,21.9884737 C28.8590938,21.4816316 29.1241875,21.0011053 29.3919375,20.5605789 C29.5810625,20.2484737 29.9895938,20.1479474 30.3030313,20.3353158 C30.6175313,20.5221579 30.719,20.9263684 30.5304063,21.2379474 C30.2801875,21.6500526 30.0310313,22.1011053 29.7898438,22.5779474 C29.6735,22.8079474 29.4392188,22.9411053 29.1959063,22.9411053 M23.4291875,24.6637368 C23.2756563,24.6637368 23.1205313,24.6116316 22.9956875,24.5042632 C22.63125,24.1921579 22.2407813,23.8153158 21.8040938,23.3532105 C21.5533438,23.0874211 21.5676875,22.6711053 21.8354375,22.4232105 C22.1031875,22.1753158 22.5234063,22.1884737 22.7741563,22.4537368 C23.1784375,22.8821579 23.5349063,23.2268947 23.8632188,23.5079474 C24.1410625,23.7453158 24.171875,24.1605789 23.9322813,24.4358421 C23.8010625,24.5868947 23.6156563,24.6637368 23.4291875,24.6637368 M42.3496563,24.6958421 C42.0330313,24.6958421 41.7530625,24.4711053 41.6956875,24.1521579 C41.6170625,23.7074211 41.4847813,23.2342632 41.3020313,22.7453158 C41.1750625,22.4037368 41.3509063,22.0258421 41.694625,21.8995263 C42.0404688,21.7732105 42.421375,21.9484737 42.5483438,22.289 C42.7576563,22.8521579 42.9111875,23.4021579 43.0041563,23.9237368 C43.067375,24.2821579 42.8261875,24.6226842 42.4654688,24.6858421 C42.4261563,24.6926842 42.387375,24.6958421 42.3496563,24.6958421 M7.56871875,24.979 C7.53790625,24.979 7.507625,24.9768947 7.47628125,24.9726842 C7.1134375,24.9232105 6.8595,24.5905789 6.90996875,24.2305789 C6.98753125,23.6753158 7.0794375,23.1384737 7.1825,22.6342632 C7.25475,22.2779474 7.60325,22.0484737 7.96503125,22.1195263 C8.3246875,22.1921579 8.55684375,22.539 8.48459375,22.8953158 C8.3863125,23.3732105 8.29971875,23.8832105 8.22534375,24.4116316 C8.179125,24.7411053 7.894375,24.979 7.56871875,24.979 M26.0200938,25.8411053 C25.6684063,25.8411053 25.3751563,25.5674211 25.357625,25.2153158 C25.3395625,24.8526842 25.6216563,24.5442632 25.9882188,24.5263684 C26.34575,24.5079474 26.6937188,24.3611053 27.0517813,24.0758421 C27.3375938,23.8484737 27.7556875,23.8937368 27.9857188,24.1768947 C28.2152188,24.4600526 28.1695313,24.8742632 27.8837188,25.1016316 C27.3078438,25.5605789 26.692125,25.8084737 26.0535625,25.8400526 C26.0424063,25.8405789 26.03125,25.8411053 26.0200938,25.8411053 M6.63584375,29.2974211 C6.511,29.2974211 6.38509375,29.2626842 6.273,29.1900526 C5.96540625,28.9911053 5.879875,28.5832105 6.0806875,28.2795263 C6.30221875,27.9442632 6.48709375,27.5200526 6.62946875,27.0195263 C6.72828125,26.6700526 7.09484375,26.4653158 7.44865625,26.5647895 C7.80140625,26.6632105 8.007,27.0268947 7.90765625,27.3763684 C7.728625,28.0063684 7.48796875,28.5526842 7.1920625,29.0000526 C7.0645625,29.1926842 6.8520625,29.2974211 6.63584375,29.2974211 M4.1724375,30.5663684 C4.16128125,30.5663684 4.150125,30.5658421 4.1384375,30.5653158 C3.1609375,30.5163684 2.40815625,30.1247895 2.32528125,30.0805789 C2.00334375,29.9074211 1.8838125,29.5079474 2.05859375,29.1884737 C2.233375,28.8705789 2.635,28.7532105 2.95640625,28.9226842 C2.96171875,28.9258421 3.52271875,29.2174211 4.20590625,29.2516316 C4.5719375,29.2700526 4.85403125,29.579 4.8354375,29.9421579 C4.81684375,30.2937368 4.524125,30.5663684 4.1724375,30.5663684"/>
    <path fill="#0E497B" d="M1.328125,42.0452105 L17.3065312,48.1788947 L33.2381875,42.0620526 C33.3927812,42.0036316 33.5649063,42.0036316 33.7184375,42.0620526 L49.4567188,48.1025789 L49.4567188,7.67784211 L33.4783125,1.54468421 L17.5471875,7.65889474 C17.3936562,7.71731579 17.2215312,7.71731579 17.068,7.65889474 L1.328125,1.61836842 L1.328125,42.0452105 Z M50.1207813,49.721 C50.0395,49.721 49.9582188,49.7067895 49.8811875,49.6767895 L33.4788438,43.3815263 L17.5466562,49.4978421 C17.3920625,49.5573158 17.221,49.5573158 17.0664062,49.4978421 L0.42446875,43.1094211 C0.16840625,43.0115263 0,42.7673158 0,42.4957368 L0,0.657842105 C0,0.441 0.10784375,0.237842105 0.289,0.115210526 C0.47015625,-0.00742105263 0.7001875,-0.0337368421 0.90365625,0.0441578947 L17.3075938,6.33942105 L33.2376563,0.225736842 C33.39225,0.166263158 33.5638438,0.166263158 33.7184375,0.225736842 L50.360375,6.61363158 C50.6159063,6.71152632 50.7848438,6.95573684 50.7848438,7.22731579 L50.7848438,49.0631053 C50.7848438,49.2799474 50.677,49.4831053 50.4958438,49.6057368 C50.38375,49.6820526 50.2530625,49.721 50.1207813,49.721 Z"/>
    <path fill="#0E497B" d="M45.5946375,33.3255263 C45.4246375,33.3255263 45.2546375,33.2613158 45.1250125,33.1328947 L38.7696688,26.8360526 C38.5104188,26.5792105 38.5104188,26.1628947 38.7696688,25.9055263 C39.02945,25.6486842 39.4496688,25.6486842 39.7089188,25.9055263 L46.0642625,32.2023684 C46.3235125,32.4592105 46.3235125,32.8760526 46.0642625,33.1328947 C45.9346375,33.2613158 45.7646375,33.3255263 45.5946375,33.3255263"/>
    <path fill="#0E497B" d="M39.2393469 33.3255263C39.0693469 33.3255263 38.8993469 33.2613158 38.7697219 33.1328947 38.5104719 32.8760526 38.5104719 32.4592105 38.7697219 32.2023684L45.1250656 25.9055263C45.3843156 25.6486842 45.8045344 25.6486842 46.0643156 25.9055263 46.3235656 26.1628947 46.3235656 26.5792105 46.0643156 26.8360526L39.7089719 33.1328947C39.5793469 33.2613158 39.4093469 33.3255263 39.2393469 33.3255263M17.3076469 49.5426316C16.9410844 49.5426316 16.6435844 49.2478947 16.6435844 48.8847368L16.6435844 7.04526316C16.6435844 6.68157895 16.9410844 6.38736842 17.3076469 6.38736842 17.6742094 6.38736842 17.9717094 6.68157895 17.9717094 7.04526316L17.9717094 48.8847368C17.9717094 49.2478947 17.6742094 49.5426316 17.3076469 49.5426316M33.4781 43.3337895C33.1115375 43.3337895 32.8140375 43.0390526 32.8140375 42.6758947L32.8140375.839052632C32.8140375.475368421 33.1115375.181157895 33.4781.181157895 33.8446625.181157895 34.1421625.475368421 34.1421625.839052632L34.1421625 42.6758947C34.1421625 43.0390526 33.8446625 43.3337895 33.4781 43.3337895"/>
  </g>
</svg>
