<svg xmlns="http://www.w3.org/2000/svg" width="44" height="54" viewBox="0 0 44 54">
  <title>Shield icon</title>
  <g fill="none" fill-rule="evenodd" transform="translate(.05 .44)">
    <path fill="#0E497B" d="M1.375,9.37652813 L1.375,17.1090073 C1.3772,30.9883823 3.8731,44.7352573 21.901,51.3464552 C39.92945,44.7352573 42.4248,30.9883823 42.42755,17.1090073 L42.42755,9.37652813 C34.2265,9.01049688 27.49945,6.46539271 21.901,1.60926771 C16.30255,6.46539271 9.5755,9.01049688 1.375,9.37652813 M21.901,52.7702781 C21.82235,52.7702781 21.7437,52.7570281 21.66835,52.729424 C2.62955,45.8637156 0.00275,31.5520594 0,17.1090073 L0,8.71126771 C0,8.33861146 0.29535,8.03275729 0.66715,8.02171563 C9.06015,7.76996563 15.85595,5.20388229 21.4423,0.176059375 C21.703,-0.0585760417 22.099,-0.0585760417 22.36025,0.176059375 C27.9466,5.20388229 34.74185,7.76996563 43.1354,8.02171563 C43.5072,8.03275729 43.80255,8.33861146 43.80255,8.71126771 L43.80255,17.1090073 C43.7998,31.5520594 41.173,45.8637156 22.13365,52.729424 C22.0583,52.7570281 21.97965,52.7702781 21.901,52.7702781"/>
    <path fill="#FFB81C" d="M21.104105,14.7951708 L21.104105,16.8108271 C20.990805,16.8318062 20.892905,16.8494729 20.793905,16.8687958 C20.688855,16.8892229 20.583805,16.9102021 20.479305,16.9328375 C18.779805,17.3093583 17.537905,18.2528687 16.853155,19.8853792 C16.484105,20.7665042 16.375205,21.6912438 16.435705,22.6380667 C16.551755,24.4334417 17.407005,25.7838375 18.955255,26.6594417 C19.623505,27.0365146 20.352255,27.3075875 21.061755,27.6073688 C21.944505,27.9794729 22.841005,28.3206604 23.721555,28.6960771 C24.488805,29.0234625 24.784705,29.6555979 24.724205,30.4572229 C24.658205,31.3245458 24.256155,32.0113375 23.316755,32.2205771 C22.953755,32.3017333 22.574255,32.3425875 22.202455,32.3414833 C20.775205,32.3365146 19.821505,31.6281917 19.372705,30.2667542 C19.291305,30.0194208 19.231355,29.7643583 19.155455,29.4927333 C18.032355,29.7825771 16.913655,30.0729729 15.792205,30.3628167 C16.079855,31.6221188 16.543505,32.7660354 17.418005,33.704025 C18.411855,34.77065 19.680155,35.2548271 21.107405,35.4127229 L21.107405,38.0218688 L23.281555,38.0218688 L23.281555,35.4370146 C23.718805,35.3481292 24.143405,35.280775 24.557555,35.1736708 C26.173455,34.7546396 27.404905,33.8442542 28.097905,32.2890354 C28.600055,31.1627854 28.727105,29.9735979 28.504905,28.7672958 C28.234855,27.2987542 27.465955,26.1631188 26.151455,25.4172542 C25.125155,24.8353583 24.020755,24.4400667 22.931755,24.005025 C22.273405,23.7422333 21.630455,23.4363792 20.993555,23.1233479 C20.631655,22.9461292 20.392955,22.6330979 20.270305,22.2416708 C19.940305,21.1866396 20.575005,20.0278167 21.645855,19.7611604 C22.495055,19.5491604 23.255155,19.7341083 23.895355,20.3491292 C24.304555,20.7422125 24.579555,21.2269417 24.810005,21.7398271 C24.884805,21.9037958 24.951905,22.0710771 25.028355,22.2505042 C26.042555,21.8303688 27.044105,21.4152021 28.041255,21.0011396 C27.978555,20.4667229 27.425805,19.3371604 26.933555,18.7232438 C25.996355,17.5539313 24.737405,16.9979833 23.276605,16.8130354 L23.276605,14.7951708 L21.104105,14.7951708 Z"/>
  </g>
</svg>
